<svg style="position: absolute; width: 0; height: 0;" width="0" height="0" version="1.1" xmlns="http://www.w3.org/2000/svg" xmlns:xlink="http://www.w3.org/1999/xlink">
	<defs>
		<symbol id="icon-logo-link" viewBox="0 0 825.5 288.7">
			<title>up-logo</title>
			<path id="XMLID_59_" d="M263.1,151.2c0,1.8,0,3.5-0.1,5.3l0,0.8c0,0.2,0,0,0,0.6l0,0.4l-0.1,1.4
	c-0.1,0.9-0.2,1.9-0.2,2.9c0,0.4-0.1,1-0.2,1.6l-0.2,1.3l0,0.3c-0.1,1.1-0.3,2.2-0.4,3.2c-0.2,1-0.4,2.1-0.6,3.1
	c-0.2,1-0.3,2.1-0.6,3.1c-0.2,1-0.5,2-0.7,3.1c-0.1,0.5-0.2,1-0.4,1.5l-0.4,1.5c-2.3,8.1-5.5,16.1-9.7,23.6c-0.3,0.5-0.6,1-0.9,1.5
	c-1.7,2.9-3.6,5.8-5.5,8.6v0c-0.8,1.2-1.7,2.3-2.6,3.5c-2,2.5-4,5-6.2,7.4c-6,6.4-12.7,12.2-20.1,17.1c-1.9,1.2-3.7,2.4-5.7,3.5
	c-0.2,0.1-0.4,0.2-0.6,0.3c-0.1,0.1-0.2,0.1-0.3,0.2c0,0,0,0,0,0c-0.6,0.4-1.3,0.7-1.9,1.1l-4.5,2.3l-1.5,0.7l-0.4,0.2l0,0l-2.6,1.2
	c-1,0.4-2.1,0.8-3.1,1.2s-2.1,0.8-3.2,1.2l-3.2,1.1c-0.5,0.2-1.1,0.3-1.6,0.5l-1.6,0.5l-1.6,0.5c-0.5,0.2-1.1,0.3-1.6,0.4l-3.3,0.8
	c-1.1,0.3-2.2,0.4-3.3,0.6c-0.7,0.1-1.4,0.3-2.1,0.4c-0.4,0.1-0.8,0.2-1.2,0.2l-3.3,0.4l-1.7,0.2c-0.6,0.1-1.1,0.1-1.7,0.1l-3.4,0.2
	c-1.1,0.1-2.2,0.1-3.4,0.1h0l-1.7,0l-0.8,0l-0.8,0l-3.4-0.1l-0.8,0l-0.4,0c-0.5,0-0.4,0-0.6,0l-1.6-0.1l-1.6-0.1l-0.8-0.1l-0.4,0
	l-0.4-0.1c-2.3-0.3-4.7-0.6-7-1l-1.7-0.3l-0.8-0.2l-0.8-0.2l-3.3-0.8c-1.1-0.3-2.2-0.6-3.3-0.9l-1.7-0.5c-0.5-0.2-1.1-0.4-1.6-0.6
	c-1.1-0.4-2.2-0.7-3.3-1.1l-3.2-1.3c-0.5-0.2-1.1-0.4-1.6-0.7c-0.5-0.2-1-0.5-1.6-0.7c-1-0.5-2.1-0.9-3.1-1.5l-3.1-1.6
	c-0.2-0.1-0.4-0.2-0.6-0.3c0,0,0,0,0,0c-0.5-0.3-1-0.6-1.5-0.9h0c-0.3-0.2-0.6-0.3-0.8-0.5c-0.5-0.3-1-0.6-1.5-0.9l-1.4-0.9
	c-0.9-0.6-1.9-1.2-2.9-1.9c-3.8-2.6-7.3-5.6-10.7-8.7c-3.4-3.1-6.5-6.5-9.4-10.1c-1.6-2-3.2-4.1-4.6-6.3v0c-0.7-1-1.4-2-2-3h0
	c-0.4-0.7-0.8-1.3-1.2-2c-1.2-2.1-2.4-4.3-3.5-6.5l0,0c-1-1.9-1.9-3.9-2.7-5.9c-1.7-4.3-3.2-8.6-4.3-13.1c-1.8-7.3-2.9-14.8-3-22.3
	c0-0.2,0-0.5,0-0.7v0.7h0v-0.7c0-1,0-2,0.1-3l0-1.7c0-0.2,0-0.1,0-0.6l0-0.4l0.1-0.8l0.1-1.6l0.1-0.8c0-0.3,0-0.5,0.1-0.8l0.5-3.5
	c0.1-0.6,0.2-1.1,0.3-1.6c0,0,0-0.1,0-0.1l0.3-1.7l0.3-1.7l1-4.2l0.2-0.8l1-3.3l1.1-3.3c1.3-3.6,2.8-7.2,4.6-10.6
	c1-2,2.1-3.9,3.3-5.7h0c0.5-0.8,0.9-1.5,1.4-2.2c0.1-0.2,0.2-0.4,0.4-0.5l0.1,0h0l0.2,0l-0.2,0l-0.1,0c0.6-1,1.3-1.9,2-2.8
	c0.6-0.8,1.1-1.5,1.7-2.3c1.3-1.7,2.6-3.3,4.1-4.8c0.2-0.2,0.4-0.5,0.6-0.7c2.5-2.6,5.1-5.1,7.8-7.4l0,0c0.3-0.3,0.6-0.5,0.9-0.8
	c0,0,0,0,0,0c1.9-1.6,3.9-3,5.9-4.4c3.2-2.2,6.6-4.1,10-5.9c0.3-0.2,0.7-0.3,1-0.5l0,0c0.2-0.1,0.4-0.2,0.6-0.3
	c0.3-0.2,0.6-0.3,1-0.4c0.4-0.2,0.7-0.3,1.1-0.5v0c1.8-0.8,3.7-1.5,5.5-2.2c1.6-0.6,3.2-1.1,4.9-1.6c1.1-0.3,2.1-0.6,3.2-0.9
	c0.2,0,0.4-0.1,0.6-0.2c0.9-0.2,1.7-0.4,2.6-0.6c2.2-0.5,4.4-0.8,6.6-1.1l1.6-0.2c0.5-0.1,1.1-0.1,1.6-0.2l3.3-0.2
	c1.1,0,2.2,0,3.3-0.1c0.6,0,1.1,0,1.6,0l1.7,0.1l1.6,0l0.8,0c0.4,0,0.3,0,0.5,0l0.4,0l3.1,0.3c1.1,0.2,2.2,0.3,3.4,0.4
	c0.6,0.1,1.1,0.2,1.6,0.3h0l1.6,0.3c4.3,0.8,8.5,2,12.5,3.6c8.1,3.1,15.6,7.5,22.1,13c0.6,0.5,1.1,1,1.7,1.5c0.7,0.6,1.4,1.3,2,1.9
	c2.4,2.3,4.6,4.7,6.6,7.2v0c0.5,0.7,1.1,1.3,1.6,2c0.8,1,1.5,2,2.2,3.1c0.5,0.8,1,1.5,1.5,2.3c0.2,0.4,0.5,0.7,0.7,1.1
	c0.4,0.7,0.9,1.5,1.3,2.2c0.2,0.3,0.4,0.6,0.5,1c0,0.1,0.1,0.1,0.1,0.2c0,0,0,0,0,0c0.4,0.7,0.8,1.5,1.1,2.2
	c0.4,0.9,0.8,1.7,1.2,2.6c0,0,0,0.1,0.1,0.1c0.4,0.9,0.8,1.8,1.2,2.8c0.6,1.4,1.1,2.9,1.6,4.3c0.1,0.4,0.2,0.7,0.4,1.1l0.3,0.9
	c0,0.1,0,0.1,0.1,0.2c0.3,0.8,0.5,1.7,0.7,2.5c0.2,0.9,0.5,1.8,0.7,2.7c0.5,2,0.8,4,1.1,6c0.1,1,0.2,2,0.4,3l0.1,0.8l0,0.8l0.1,1.5
	l0.1,1.5c0,0.5,0,1,0,1.5c0,0.6,0,1.2,0,1.8c0,1-0.1,2-0.1,3v0.4c0,0.1,0,0.4,0,0.4l-0.1,0.7l-0.1,1.4c-0.1,0.9-0.2,2-0.3,2.9
	l-0.2,1.5c-0.1,0.3-0.1,0.6-0.2,0.9c0,0.2-0.1,0.4-0.1,0.6c-0.3,1.9-0.8,3.9-1.3,5.7c-1,3.8-2.3,7.4-3.9,10.9
	c-1.6,3.5-3.5,6.9-5.6,10c-0.2,0.4-0.5,0.7-0.7,1.1c-0.1,0.2-0.3,0.4-0.4,0.6c0,0.1-0.1,0.1-0.2,0.2c-0.2,0.3-0.4,0.5-0.6,0.8
	c-0.5,0.6-0.9,1.2-1.4,1.9c-0.3,0.4-0.6,0.7-0.9,1.1c-0.1,0.2-0.3,0.3-0.4,0.5c0,0-0.1,0.1-0.1,0.1c0,0.1-0.1,0.1-0.2,0.2
	c-0.2,0.2-0.4,0.4-0.5,0.6c-0.5,0.6-1.1,1.2-1.6,1.8c-0.6,0.7-1.3,1.3-2,2c-0.5,0.5-1,1-1.6,1.5c-0.3,0.3-0.6,0.5-0.9,0.8h0
	c-0.7,0.6-1.5,1.3-2.2,1.9c-0.5,0.4-0.9,0.7-1.4,1.1c-0.2,0.1-0.3,0.2-0.5,0.4c-0.6,0.4-1.2,0.9-1.8,1.3c-0.2,0.1-0.3,0.2-0.5,0.3
	c-0.7,0.5-1.4,0.9-2,1.4c-0.6,0.4-1.2,0.8-1.9,1.2c-0.1,0.1-0.2,0.1-0.4,0.2c0,0-0.1,0.1-0.1,0.1c-0.7,0.4-1.5,0.8-2.2,1.2
	c0,0,0,0-0.1,0c-3.2,1.7-6.5,3.1-9.8,4.2c-0.8,0.3-1.7,0.6-2.5,0.8c-0.8,0.2-1.7,0.5-2.5,0.7c-1.7,0.4-3.4,0.8-5.1,1.1
	c-1.7,0.3-3.4,0.5-5.1,0.7c-0.7,0-1.4,0.1-2.1,0.2c-0.5,0-1,0.1-1.5,0.1c-0.5,0-1,0-1.5,0c-1.7,0.1-3.4,0-5.1-0.1
	c-0.8-0.1-1.7-0.1-2.5-0.2c-0.8-0.1-1.7-0.2-2.5-0.3c-0.8-0.1-1.7-0.2-2.5-0.4c-0.8-0.1-1.5-0.3-2.2-0.4c-0.1,0-0.1,0-0.2,0
	c0,0,0,0-0.1,0l-0.2,0c-0.7-0.2-1.4-0.3-2.1-0.5c-0.8-0.2-1.5-0.4-2.2-0.6h0c-0.7-0.2-1.3-0.4-2-0.6c0,0-0.1,0-0.1,0
	c-0.4-0.1-0.7-0.3-1.1-0.4c-0.1,0-0.2-0.1-0.3-0.1c-0.9-0.3-1.8-0.7-2.7-1.1c0,0-0.1,0-0.1,0h0c-0.6-0.3-1.3-0.6-1.9-0.9
	c-0.3-0.1-0.6-0.3-0.9-0.4c-0.6-0.3-1.1-0.6-1.7-0.9c-0.3-0.2-0.6-0.3-0.9-0.5c-0.4-0.2-0.9-0.5-1.3-0.8c-0.1-0.1-0.3-0.2-0.4-0.2
	c-0.6-0.4-1.2-0.7-1.8-1.1c-0.5-0.3-1-0.7-1.5-1c-0.2-0.1-0.4-0.3-0.6-0.5c-0.2-0.2-0.4-0.3-0.6-0.5c0,0-0.1-0.1-0.1-0.1
	c-0.4-0.3-0.8-0.6-1.3-1c-0.5-0.3-0.9-0.7-1.4-1.1c-1.2-1-2.4-2-3.5-3.1c-2.2-2.1-4.2-4.3-6-6.6c-0.8-1-1.5-2-2.2-3.1v0
	c-0.1-0.2-0.2-0.3-0.3-0.5c-0.4-0.6-0.8-1.2-1.2-1.8l-0.6-0.9l-0.5-0.9c-0.4-0.7-0.8-1.4-1.2-2.2c-0.3-0.6-0.6-1.2-0.9-1.8
	c-0.1-0.1-0.1-0.2-0.2-0.3l0,0c0,0,0,0,0-0.1c0-0.1-0.1-0.2-0.1-0.3c0,0,0-0.1-0.1-0.1c-0.2-0.4-0.3-0.8-0.5-1.2
	c-0.1-0.1-0.1-0.2-0.2-0.4c-0.1-0.2-0.2-0.5-0.3-0.7c-0.1-0.1-0.1-0.3-0.2-0.4c0-0.1,0-0.1-0.1-0.2c-0.2-0.4-0.3-0.8-0.5-1.2
	c-0.2-0.5-0.4-1.1-0.6-1.6c-0.2-0.5-0.4-1.1-0.5-1.6c-0.3-1.1-0.6-2.2-0.9-3.3c-0.1-0.6-0.3-1.2-0.4-1.7c-0.2-1.1-0.5-2.2-0.6-3.4
	c-0.1-0.6-0.2-1.1-0.2-1.7c-0.1-0.6-0.1-1.1-0.2-1.7c-0.1-0.5-0.1-1-0.1-1.5c0-0.1,0-0.3,0-0.4c0-0.2,0-0.5,0-0.7
	c0-0.4,0-0.8-0.1-1.2c0-0.4,0-0.8,0-1.2c0-5.2,0.7-10.2,2-14.9c1.2-4.4,2.9-8.5,5-12.2c0.4-0.7,0.8-1.4,1.2-2.1c0,0,0,0,0-0.1h0
	c0.1-0.1,0.1-0.2,0.2-0.3c0.3-0.6,0.7-1.1,1.1-1.6c1.4-2,2.9-3.9,4.5-5.6c0.1-0.1,0.2-0.3,0.4-0.4c0-0.1,0.1-0.1,0.2-0.2
	c0.2-0.2,0.5-0.5,0.7-0.7c0.2-0.2,0.4-0.4,0.6-0.6c0.6-0.6,1.3-1.2,1.9-1.8l0,0c0.3-0.3,0.7-0.6,1.1-0.9c0.4-0.3,0.7-0.6,1.1-0.9
	c0,0,0,0,0,0c0,0,0.1-0.1,0.1-0.1c0.1-0.1,0.2-0.1,0.2-0.2c0.3-0.2,0.6-0.5,0.9-0.7c0.4-0.3,0.8-0.6,1.2-0.9c1.4-1,2.7-1.9,4.1-2.7
	c0.3-0.2,0.7-0.4,1.1-0.6c0.4-0.2,0.8-0.5,1.2-0.7c0.4-0.2,0.8-0.4,1.2-0.6c1.9-0.9,3.8-1.7,5.6-2.4h0c0.2-0.1,0.4-0.1,0.6-0.2
	c0.5-0.2,0.9-0.3,1.3-0.5c0.5-0.2,1-0.3,1.5-0.5c0.5-0.1,0.9-0.3,1.4-0.4c0.4-0.1,0.9-0.2,1.3-0.3c0.4-0.1,0.8-0.2,1.1-0.2
	c0.5-0.1,0.9-0.2,1.3-0.3c4-0.7,7.1-0.8,9.2-0.8c1.1,0,1.9,0,2.4,0c0.5,0,0.8,0,0.8,0s-0.3,0-0.8,0c-0.5,0-1.3,0-2.4,0
	c-1.2,0-2.6,0.1-4.4,0.3c-0.6,0.1-1.2,0.1-1.9,0.2c-0.9,0.1-1.8,0.3-2.8,0.5c-0.5,0.1-1,0.2-1.5,0.3c-0.3,0.1-0.6,0.2-0.9,0.2
	c-0.1,0-0.2,0-0.3,0.1c-0.2,0-0.4,0.1-0.6,0.2c-0.6,0.2-1.2,0.3-1.9,0.6c-0.4,0.1-0.9,0.3-1.3,0.4c-0.4,0.1-0.8,0.3-1.2,0.4
	c-0.2,0.1-0.4,0.2-0.6,0.2c-0.3,0.1-0.5,0.2-0.8,0.3c-0.3,0.1-0.5,0.2-0.8,0.3c-0.2,0.1-0.4,0.2-0.6,0.3c-0.2,0.1-0.4,0.2-0.6,0.3
	c-0.1,0-0.2,0.1-0.3,0.1c-0.3,0.2-0.7,0.3-1,0.5c-0.5,0.2-0.9,0.5-1.4,0.7c-3.1,1.6-6.3,3.7-9.4,6.3c-1.1,0.9-2.2,1.9-3.3,3
	c-0.6,0.6-1.3,1.3-1.9,2c-0.3,0.3-0.6,0.7-0.9,1c-0.3,0.4-0.6,0.7-0.9,1.1c-0.9,1.1-1.8,2.3-2.6,3.5c-0.2,0.3-0.5,0.7-0.7,1
	c-0.3,0.5-0.6,0.9-0.9,1.4c-0.1,0.2-0.2,0.3-0.3,0.5c-0.4,0.7-0.9,1.4-1.2,2.2c-0.1,0.2-0.2,0.4-0.3,0.6c0,0,0,0.1-0.1,0.2
	c-1.2,2.7-2.2,5.6-3,8.7c-1.1,4.2-1.6,8.8-1.6,13.5c0-0.3,0-0.6,0-0.9c-0.1,1.8,0,3.6,0.1,5.5c0,0.5,0.1,0.9,0.1,1.4
	c0.3,3.4,0.9,6.8,1.8,10.2c0.5,1.6,1,3.3,1.6,4.9c1.2,3.3,2.7,6.5,4.6,9.7l0.5,0.9l0.6,0.9c0.4,0.6,0.8,1.2,1.2,1.7
	c0.1,0.1,0.2,0.2,0.2,0.3c0.7,1,1.5,2,2.3,3c1.8,2.2,3.7,4.3,5.8,6.2c1,0.9,2,1.8,3,2.6c0,0,0.1,0,0.1,0.1c3.4,2.8,7.3,5.1,11.4,7.1
	c0.2,0.1,0.4,0.2,0.6,0.3c0.5,0.2,1,0.4,1.5,0.6c2.1,0.9,4.2,1.6,6.4,2.2c2.9,0.9,6,1.4,9.1,1.8c0.8,0.1,1.5,0.2,2.3,0.2
	c0.8,0,1.6,0.1,2.4,0.1c1.6,0,3.2,0.1,4.8,0c0.6,0,1.3,0,1.9-0.1c0.4,0,0.8-0.1,1.2-0.1c0.6,0,1.1-0.1,1.7-0.2
	c1.6-0.2,3.2-0.4,4.8-0.8c1.6-0.3,3.2-0.7,4.8-1.1c0.8-0.2,1.6-0.5,2.3-0.7c0.8-0.2,1.6-0.5,2.3-0.8c2.7-1,5.4-2.2,8.1-3.6
	c0.3-0.2,0.7-0.4,1-0.5c3.9-2.2,7.5-4.7,10.9-7.7l0,0c0.5-0.4,0.9-0.8,1.4-1.2c1.1-1.1,2.3-2.2,3.3-3.4c0,0,0,0,0-0.1
	c0,0,0.1-0.1,0.1-0.1c0-0.1,0.1-0.1,0.2-0.2c1.7-1.9,3.4-3.9,4.9-6c0,0,0,0,0,0l-0.2-0.1c0.1-0.2,0.3-0.4,0.4-0.6
	c1.9-2.9,3.6-6,5-9.3c1.4-3.3,2.6-6.6,3.4-10.1c0.4-1.7,0.8-3.5,1-5.3c0-0.2,0.1-0.5,0.1-0.7c0-0.2,0.1-0.4,0.1-0.6l0.1-1.3
	c0.1-0.9,0.2-1.7,0.3-2.7c0.1-1.7,0.2-3.3,0.2-5v-0.3c0-2.3-0.1-4.5-0.3-6.8l-0.1-1.4l-0.1-0.7l-0.1-0.7c-0.1-0.9-0.3-1.8-0.4-2.7
	c-0.4-1.8-0.7-3.6-1.2-5.4c-0.2-0.9-0.5-1.7-0.7-2.6c-0.8-2.7-1.7-5.4-2.9-8c-0.7-1.6-1.4-3.1-2.2-4.6c-0.2-0.5-0.5-0.9-0.7-1.3
	c-0.2-0.4-0.4-0.8-0.6-1.1c-0.3-0.5-0.5-0.9-0.8-1.4c-0.1-0.2-0.2-0.3-0.3-0.4v0c-0.2-0.4-0.4-0.7-0.7-1.1c-0.5-0.8-1-1.6-1.5-2.3
	c0,0,0,0-0.1-0.1c-0.5-0.7-1-1.5-1.6-2.2c-0.1-0.1-0.2-0.2-0.2-0.3c-0.5-0.7-1-1.3-1.6-2c-0.4-0.5-0.8-1-1.2-1.5
	c-0.3-0.4-0.7-0.8-1-1.1c0,0,0,0-0.1-0.1c-0.4-0.5-0.9-1-1.3-1.4c-0.5-0.5-0.9-0.9-1.4-1.4c-0.4-0.4-0.7-0.7-1.1-1.1
	c-0.2-0.2-0.5-0.5-0.7-0.7c-0.4-0.3-0.8-0.7-1.1-1c-0.7-0.6-1.4-1.2-2.1-1.8c-6-4.8-12.7-8.6-20-11.2c-3.7-1.3-7.4-2.2-11.2-2.9h0
	l-1.4-0.2c-0.5-0.1-1-0.2-1.4-0.2l-2.8-0.3l-3.1-0.2l-0.4,0c-0.1,0-0.3,0-0.3,0H147l-1.5,0l-1.5,0c-0.5,0-1,0-1.5,0.1
	c-1,0-2,0.1-2.9,0.1l-2.9,0.3c-0.5,0-1,0.1-1.5,0.2l-1.5,0.2c-3.9,0.6-7.8,1.4-11.5,2.7c-2.2,0.7-4.5,1.5-6.6,2.5h0
	c-0.6,0.2-1.2,0.5-1.7,0.8c-0.3,0.2-0.7,0.3-1,0.5h0c-0.5,0.2-1.1,0.5-1.6,0.8c-0.8,0.4-1.5,0.8-2.2,1.2c-0.6,0.3-1.2,0.7-1.8,1
	c-0.5,0.3-1.1,0.6-1.6,0.9c-0.4,0.3-0.8,0.5-1.2,0.8h0c-0.3,0.2-0.5,0.3-0.8,0.5c-0.1,0-0.1,0.1-0.2,0.1c-0.8,0.5-1.6,1.1-2.4,1.6
	c-0.9,0.6-1.8,1.3-2.7,2c-0.6,0.5-1.2,0.9-1.8,1.4c-0.1,0.1-0.2,0.2-0.3,0.2c-0.8,0.6-1.5,1.3-2.2,1.9c-0.7,0.6-1.4,1.3-2.1,2
	c0,0-0.1,0-0.1,0.1c-0.6,0.6-1.3,1.2-1.9,1.9c-0.4,0.4-0.7,0.8-1.1,1.1c0,0-0.1,0.1-0.1,0.1c-0.4,0.4-0.8,0.9-1.1,1.3
	c-0.4,0.5-0.8,1-1.2,1.5c0,0,0,0,0,0.1l0,0c-0.7,0.8-1.4,1.7-2.1,2.6c-0.1,0.1-0.2,0.2-0.2,0.3h0c0,0,0,0.1-0.1,0.1
	c-0.2,0.3-0.4,0.5-0.6,0.8c-0.4,0.5-0.8,1.1-1.2,1.6c-0.1,0.1-0.2,0.2-0.2,0.3c0,0-0.1,0.1-0.1,0.1c-0.4,0.5-0.8,1.1-1.1,1.7
	c-0.1,0.1-0.2,0.3-0.3,0.4c-0.2,0.3-0.3,0.5-0.5,0.8c-0.1,0.1-0.1,0.2-0.2,0.3c-0.7,1.2-1.4,2.3-2,3.6c-0.2,0.4-0.5,0.9-0.7,1.3
	c0,0.1-0.1,0.2-0.1,0.2c-0.3,0.5-0.5,1.1-0.8,1.6c-0.6,1.2-1.1,2.4-1.6,3.6c-0.2,0.5-0.4,1-0.6,1.5c-0.1,0.3-0.2,0.6-0.3,0.8
	c-0.3,0.8-0.6,1.6-0.9,2.4l-0.9,2.9l-0.8,2.9l-0.2,0.7l-0.2,0.7l-0.3,1.5l-0.3,1.4l-0.2,1.5l-0.2,1.5c-0.1,0.5-0.2,1-0.2,1.4
	l-0.3,2.9c0,0.2,0,0.5-0.1,0.8l0,0.8l-0.1,1.6l0,0.8l0,0.3c0,0,0,0.2,0,0.3v0.9c0,0,0,0.1,0,0.2v0.5c0,0.6,0,1.2,0,1.9
	c0,0.9,0,1.8,0,2.7c0,0.3,0,0.6,0,0.9v0c0,0,0,0.1,0,0.1c0.1,1.6,0.2,3.3,0.3,4.9c0.1,0.8,0.2,1.5,0.3,2.3c0,0.2,0.1,0.5,0.1,0.7
	c0.1,0.6,0.2,1.2,0.3,1.8c0,0.1,0,0.2,0,0.3c0.1,0.7,0.3,1.5,0.4,2.2c0.2,0.8,0.3,1.6,0.5,2.4c0.1,0.4,0.2,0.8,0.3,1.2
	c0.1,0.5,0.3,1.1,0.4,1.6c0.2,0.6,0.3,1.3,0.5,1.9c0,0.1,0.1,0.2,0.1,0.3c1.1,3.8,2.4,7.4,4,11c1.6,3.6,3.5,7.2,5.6,10.6
	c0.1,0.1,0.2,0.2,0.3,0.4v0c0.1,0.2,0.2,0.3,0.3,0.5c0.2,0.3,0.4,0.6,0.6,0.9h0c1.3,2,2.8,4,4.3,5.9c0.5,0.7,1,1.3,1.6,1.9
	c0.3,0.3,0.6,0.6,0.9,1c2.3,2.7,4.8,5.2,7.4,7.6c2.2,1.9,4.4,3.7,6.8,5.4v0h0c0,0,0.1,0.1,0.1,0.1c0,0,0,0,0,0
	c0.8,0.6,1.6,1.1,2.5,1.7c0.1,0,0.1,0.1,0.2,0.2c0.7,0.5,1.5,0.9,2.3,1.4l1.2,0.8c0.4,0.3,0.9,0.5,1.3,0.7c0.3,0.2,0.6,0.3,0.9,0.5
	c0.4,0.2,0.8,0.5,1.3,0.7c0.1,0.1,0.3,0.1,0.4,0.2l0.9,0.5l1.3,0.7h0l0.4,0.2c0.9,0.5,1.8,0.8,2.7,1.2c0.9,0.4,1.8,0.8,2.7,1.1
	l2.7,1l2.8,0.9c0.5,0.2,0.9,0.3,1.4,0.5l1.4,0.4c0.9,0.2,1.9,0.5,2.8,0.7l2.9,0.6l0.7,0.2l0.7,0.1l1.4,0.2c1.9,0.4,3.8,0.5,5.6,0.7
	l0.3,0l0.4,0l0.8,0l1.6,0.1l1.6,0.1h1.3l2.9,0h0.7l0.7,0l1.5-0.1c0.2,0,0.3,0,0.5,0h0c0.8,0,1.6,0,2.4-0.1l2.9-0.3
	c0.5,0,1-0.1,1.5-0.2l1.4-0.2l2.9-0.4l2.8-0.6c0.9-0.2,1.9-0.3,2.8-0.6l2.8-0.7c0.5-0.1,0.9-0.3,1.4-0.4l1.4-0.4l1.4-0.4
	c0.5-0.1,0.9-0.3,1.4-0.4l2.7-1c0.9-0.3,1.8-0.7,2.7-1c0.9-0.4,1.8-0.7,2.6-1.1l2.6-1.2l1.3-0.6l1.2-0.7l0.9-0.5l1.2-0.7l0.3-0.2
	c0.8-0.5,1.6-1,2.4-1.4c0.7-0.4,1.5-0.9,2.2-1.4c0.9-0.6,1.7-1.2,2.6-1.7c1.1-0.8,2.2-1.6,3.3-2.4c0.6-0.4,1.2-0.9,1.7-1.4
	c0.4-0.3,0.8-0.6,1.2-0.9l0,0c2.5-2,4.8-4.2,7.1-6.5l0,0c0.9-1,1.9-2,2.8-3l0,0c0.2-0.2,0.4-0.4,0.5-0.6c0.1-0.2,0.3-0.3,0.4-0.4
	c0,0,0,0,0.1-0.1c0.1-0.1,0.2-0.2,0.2-0.3l0,0c0.2-0.2,0.4-0.4,0.5-0.6c1.2-1.3,2.3-2.7,3.4-4.1l-0.2,0c0.6-0.8,1.2-1.6,1.8-2.4
	c0.3-0.4,0.5-0.8,0.8-1.2h0c0.3-0.4,0.5-0.8,0.8-1.2c1.7-2.5,3.2-5.1,4.6-7.8c3.4-6.4,5.9-13.1,7.7-20l0.3-1.3
	c0.1-0.4,0.2-0.9,0.3-1.3l0.5-2.6c0.2-0.9,0.3-1.7,0.5-2.6c0.2-0.9,0.3-1.7,0.4-2.6c0.1-0.7,0.2-1.3,0.2-2v0c0-0.2,0-0.3,0-0.5
	l0.1-1.2c0-0.4,0.1-0.8,0.1-1.3c0.1-0.9,0.1-1.9,0.2-2.8l0.1-1.4l0-0.3c0-0.1,0-0.1,0-0.1v-0.7c0-1.2,0-2.5,0-3.8c0-0.5,0-1,0-1.4
	v-0.4c0-0.6,0-1.3-0.1-1.9c0-0.1,0-0.2,0-0.3c0-0.1,0-0.2,0-0.2c-0.1-1.2-0.1-2.3-0.3-3.5c0-0.4-0.1-0.8-0.1-1.2
	c0-0.3-0.1-0.6-0.1-0.9c0-0.3-0.1-0.7-0.1-1c-0.1-1.2-0.3-2.4-0.5-3.6c-0.1-0.7-0.2-1.4-0.3-2.1c-0.3-1.5-0.6-3-0.9-4.5
	c-0.1-0.5-0.2-1-0.3-1.5c-0.1-0.3-0.1-0.5-0.2-0.8c-0.2-0.6-0.3-1.1-0.5-1.7c0-0.2-0.1-0.3-0.1-0.5c-0.1-0.5-0.2-0.9-0.4-1.4
	c-0.1-0.4-0.2-0.8-0.3-1.1c-0.1-0.4-0.2-0.7-0.3-1.1c-0.1-0.3-0.2-0.7-0.3-1v0c-0.1-0.2-0.2-0.5-0.2-0.7c0-0.1,0-0.2-0.1-0.2
	c-0.2-0.6-0.4-1.2-0.7-1.9c-0.2-0.5-0.3-0.9-0.5-1.4c-0.2-0.4-0.3-0.9-0.5-1.3c0,0,0,0,0,0c-0.1-0.3-0.3-0.7-0.4-1
	c-0.2-0.4-0.3-0.8-0.5-1.3c0-0.1-0.1-0.2-0.2-0.4v0c-0.2-0.4-0.3-0.7-0.5-1.1c-0.4-0.9-0.8-1.7-1.2-2.6c-0.3-0.6-0.5-1.1-0.8-1.7
	c0-0.1-0.1-0.2-0.2-0.4c-0.3-0.5-0.5-1-0.8-1.5c-0.1-0.2-0.2-0.3-0.3-0.5c-0.3-0.5-0.6-1.1-0.9-1.6c0-0.1-0.1-0.2-0.1-0.2
	c-0.3-0.6-0.7-1.2-1-1.8c0,0,0,0,0,0c-0.3-0.5-0.6-1.1-0.9-1.6c-0.3-0.5-0.6-1.1-1-1.6c-0.4-0.6-0.8-1.2-1.2-1.8
	c-0.5-0.8-1.1-1.6-1.7-2.4c-0.3-0.4-0.6-0.9-0.9-1.3c-1-1.4-2-2.6-3-3.9c-0.5-0.6-1-1.3-1.6-1.9c-0.1-0.2-0.2-0.3-0.3-0.4
	c-0.5-0.6-1.1-1.2-1.6-1.8c-0.5-0.6-1-1.1-1.5-1.6c-0.2-0.2-0.3-0.4-0.5-0.6c-0.5-0.5-1-1.1-1.6-1.6c-0.1-0.1-0.3-0.3-0.4-0.4
	c-0.3-0.3-0.6-0.6-0.9-0.9c-0.4-0.4-0.8-0.8-1.2-1.2c-0.5-0.5-1-0.9-1.5-1.4c-0.4-0.4-0.8-0.7-1.2-1.1c-0.5-0.4-1-0.9-1.5-1.3
	c-0.5-0.4-0.9-0.8-1.4-1.2c-0.4-0.3-0.8-0.6-1.2-1h0c0,0,0,0-0.1-0.1c-0.5-0.4-0.9-0.7-1.4-1.1c-0.5-0.3-0.9-0.7-1.4-1
	c-0.8-0.6-1.6-1.2-2.4-1.7c-0.8-0.6-1.6-1.1-2.4-1.6c-0.3-0.2-0.7-0.5-1-0.7c-2.4-1.5-4.8-2.9-7.2-4.2c-3.7-1.9-7.5-3.6-11.3-5
	c-1.2-0.5-2.5-0.9-3.8-1.3c-0.6-0.2-1.2-0.4-1.9-0.6l-0.9-0.3l-1-0.3c-0.6-0.2-1.2-0.3-1.9-0.5c-0.6-0.2-1.2-0.3-1.9-0.5
	c-2.5-0.5-5-1.1-7.5-1.5c-0.9-0.2-1.8-0.3-2.7-0.4h0c-1.5-0.2-2.9-0.3-4.4-0.5c-0.6,0-1.3-0.1-2-0.1c-0.7,0-1.4-0.1-2-0.1l-1-0.1
	l-0.5,0h-2c-0.6,0-1.2,0-1.8,0c-0.9,0-1.9,0-2.8,0c-0.3,0-0.5,0-0.8,0h-0.1c-0.9,0-1.9,0.1-2.8,0.1c-0.1,0-0.1,0-0.2,0
	c-0.8,0-1.5,0.1-2.3,0.2c-0.1,0-0.1,0-0.2,0c-0.5,0-1,0.1-1.5,0.1h-0.1c-0.1,0-0.3,0-0.4,0c-0.5,0.1-1.1,0.1-1.6,0.2
	c-0.5,0.1-1.1,0.1-1.6,0.2c-0.7,0.1-1.4,0.2-2,0.3c-0.4,0.1-0.9,0.1-1.3,0.2c-0.1,0-0.2,0-0.3,0h0c-0.1,0-0.2,0-0.3,0.1
	c-0.4,0.1-0.9,0.1-1.3,0.2c-0.5,0.1-1.1,0.2-1.6,0.3c-0.3,0.1-0.6,0.1-1,0.2c-0.7,0.1-1.3,0.3-2,0.4c-0.2,0-0.4,0.1-0.5,0.1
	c-1,0.2-2,0.5-3,0.7c-0.6,0.2-1.3,0.3-1.9,0.5v0c-0.9,0.2-1.7,0.5-2.6,0.7h0c-1.8,0.5-3.5,1.1-5.2,1.7c-0.5,0.2-0.9,0.3-1.3,0.5
	c-0.3,0.1-0.7,0.3-1.1,0.4c-0.5,0.2-1,0.4-1.5,0.6c-1.5,0.6-3,1.3-4.5,1.9c-0.1,0-0.2,0.1-0.3,0.2c-0.8,0.3-1.5,0.7-2.3,1
	c-0.7,0.4-1.5,0.8-2.2,1.1c-1.4,0.8-2.8,1.4-4.1,2.2c-0.2,0.1-0.4,0.2-0.6,0.3c-0.5,0.3-1,0.6-1.6,0.9c-0.3,0.2-0.6,0.3-0.8,0.5
	c-0.3,0.2-0.5,0.3-0.8,0.5c-0.6,0.4-1.2,0.8-1.7,1.1c-0.6,0.4-1.1,0.8-1.7,1.1c-0.6,0.4-1.1,0.7-1.6,1.1c-0.5,0.4-1,0.8-1.5,1.1
	c-1,0.7-1.9,1.4-2.8,2c-1.6,1.3-3,2.4-4.3,3.5c-0.1,0.1-0.3,0.2-0.4,0.3c-0.2,0.2-0.3,0.3-0.5,0.4l1.9,0.9l12.8,6.3l2.1,1h0
	c-7.5,0.4-15.9,1.8-24.5,4c-1.2,0.3-2.4,0.6-3.6,0.9c-0.1,0-0.2,0-0.3,0.1c-5.8,1.6-11.7,3.4-17.2,5.4c-4,1.4-7.9,2.9-11.6,4.5
	c-0.6,0.2-1.1,0.5-1.7,0.7c0,0-0.1,0-0.1,0c-0.4,0.2-0.8,0.3-1.1,0.5c0.2-0.5,0.5-1,0.7-1.5h0c1.4-3.1,2.9-6.4,4.3-9.8
	c3-7.4,5.9-15.5,8.1-23.4v0c0.6-2.1,1.1-4.1,1.7-6.2c1.6-6.6,2.8-13.1,3.3-19l0.9,2v0l0,0l0.7,1.5l6.5,14.5c0.3-0.3,0.7-0.6,1.1-0.9
	c0.3-0.2,0.6-0.5,0.9-0.7c0,0,0,0,0,0c4.6-3.8,4.9-4.1,11.3-8.3c0.1,0,0.1-0.1,0.2-0.1c0.1-0.1,0.2-0.1,0.3-0.2c0.5-0.3,1-0.6,1.5-1
	c1.1-0.7,2.2-1.4,3.3-2.1c0,0,0,0,0,0c0,0,0,0,0.1,0c0,0,0.1,0,0.1-0.1c0.2-0.1,0.5-0.3,0.7-0.4c1.5-0.8,3.1-1.7,4.7-2.6
	c1.5-0.9,3.2-1.6,4.8-2.5c0.1,0,0.2-0.1,0.2-0.1c0.5-0.2,1-0.5,1.5-0.7c0,0,0,0,0,0c0.4-0.2,0.8-0.4,1.2-0.6
	c0.2-0.1,0.5-0.2,0.7-0.3c0.7-0.3,1.4-0.6,2.1-0.9c3-1.3,6.1-2.5,9.5-3.6c5.1-1.7,10.7-3.3,16.6-4.5c0.6-0.1,1.1-0.2,1.7-0.3h0
	c0.8-0.2,1.7-0.3,2.5-0.4c1.7-0.3,3.5-0.6,5.3-0.8c7.1-0.9,14.6-1.3,22.3-1c0.7,0,1.4,0,2.2,0.1c0,0,0.4,0,0.5,0l0.3,0l0.5,0l1,0.1
	c1.3,0.1,2.6,0.2,4,0.3c0.8,0.1,1.5,0.2,2.3,0.3c0.2,0,0.3,0,0.4,0.1h0c2.2,0.3,4.4,0.6,6.4,1c3,0.5,6,1.3,9.1,2
	c1.5,0.4,3,0.9,4.6,1.3l1.2,0.3l1.1,0.4c0.8,0.3,1.5,0.5,2.3,0.8c3.6,1.3,7.1,2.7,10.7,4.3c1.9,0.9,3.8,1.8,5.6,2.8
	c0.6,0.3,1.2,0.6,1.8,1c0.3,0.2,0.6,0.3,0.9,0.5c0,0,0,0,0,0c5.6,3.1,11,6.8,16.3,10.9c0.6,0.5,1.2,1,1.8,1.5
	c3.4,2.8,6.7,5.9,9.9,9.1c0.9,0.9,1.7,1.8,2.6,2.7c5.4,5.9,10.3,12.4,14.5,19.5c1.1,1.9,2.2,3.9,3.3,5.8c0.6,1.1,1.2,2.3,1.7,3.5
	c1.6,3.2,3,6.5,4.2,9.8c1.2,3.2,2.3,6.4,3.2,9.7v0c0.3,0.9,0.5,1.7,0.7,2.6c0.5,1.8,0.9,3.6,1.3,5.4c0,0,0,0,0,0
	c0.5,2.3,0.9,4.6,1.3,6.9C262.6,139.2,263.1,145.2,263.1,151.2z"></path>
<polygon id="XMLID_96_" points="169.7,162.6 161.4,168.3 157.4,177.5 154.3,170.6 118.3,172.8 152.4,161.1 157.4,108.2 162.5,161.1 
	"></polygon>
<g id="XMLID_31_">
	<path id="XMLID_32_" d="M385.3,254.9h-21.5l-10.9-30.3h-45.2l-11.2,30.3h-20.7l44.1-114.3h21.3L385.3,254.9z M330.7,161.4
		l-17.8,48.1h34.8L330.7,161.4z"></path>
	<path id="XMLID_35_" d="M412.4,254.9h-18.1V140.7h18.1V254.9z"></path>
	<path id="XMLID_37_" d="M472.7,185.4H456V229c0,7.9-0.2,11.9,9.5,11.9c2.6,0,4.5,0,7.2-0.3V255c-5.5,0.6-7.7,0.6-12.3,0.6
		c-24.1,0-22.6-12-22.6-30.8v-39.4H424v-13.3h13.8v-24.9H456v24.9h16.7V185.4z"></path>
	<path id="XMLID_39_" d="M551.1,174.4c-1.3-14.3-10.7-20-24.9-20c-13.6,0-21.8,5.9-21.8,15.9c0,10.9,7.1,11.5,29,17.3
		c19.4,5,41.2,9.6,41.2,34.2c0,25.8-22.9,35.8-45.4,35.8c-27.1,0-48.1-12.8-48.1-40.4h19.7c0,17.6,13.3,24.5,29.5,24.5
		c15.4,0,24.5-6.7,24.5-18c0-11.9-9.8-13.9-26.6-18.3c-24.2-6.3-43-10.3-43-33.5c0-20.4,16.5-33.4,42.2-33.4
		c23.2,0,41.7,10.4,42.7,35.9H551.1z"></path>
	<path id="XMLID_41_" d="M635.5,140.7c14.1,0,26.5,1.9,37.4,11.7c10.9,9.8,16.8,25.2,16.8,43.5c0,17-3.7,34-16,46.3
		c-9.5,9.5-19.1,12.7-37,12.7H592V140.7H635.5z M611.9,238h23.6c26.8,0,34.2-17.8,34.2-41.2s-10.4-39.1-35.4-39.1h-22.3V238z"/>
	<path id="XMLID_44_" d="M770.8,174.4c-1.3-14.3-10.7-20-24.9-20c-13.6,0-21.8,5.9-21.8,15.9c0,10.9,7.1,11.5,29,17.3
		c19.4,5,41.2,9.6,41.2,34.2c0,25.8-22.9,35.8-45.4,35.8c-27.1,0-48.1-12.8-48.1-40.4h19.7c0,17.6,13.3,24.5,29.5,24.5
		c15.4,0,24.5-6.7,24.5-18c0-11.9-9.8-13.9-26.6-18.3c-24.2-6.3-43-10.3-43-33.5c0-20.4,16.5-33.4,42.2-33.4
		c23.2,0,41.7,10.4,42.7,35.9H770.8z"></path>
	<path id="XMLID_2_" d="M307.6,38.8c21.5,0,30.8,13.8,30.8,33.2c0,19.3-8.5,35.7-30.2,35.7h-25.6V38.8H307.6z M289.2,102.1h17.3
		c20.1,0,25.3-13.9,25.3-29.7c0-17.3-8.3-28-24.2-28h-18.4V102.1z"></path>
	<path id="XMLID_7_" d="M368.1,109.4c-13.8,0-22.9-10.2-22.9-26c0-15.8,9.4-26.8,22.8-26.8c14.7,0,21.9,12.2,21.9,26v1.7h-38.4
		c0,10.5,4.8,20.1,16.8,20.1c7.9,0,13.3-4.5,15.2-13.1h5.9C387.2,102.4,379.8,109.4,368.1,109.4z M367.8,61.6
		c-10.8,0-15.2,8.4-16.4,17.7h32.3C383.1,68.3,377.1,61.6,367.8,61.6z"></path>
	<path id="XMLID_10_" d="M428,72.5c-0.6-7.6-5.4-10.8-13.5-10.8c-7.2,0-11.6,3.2-11.6,8.2c0,6.2,4.8,7.3,14.2,9.4
		c8.1,1.8,18.5,4.4,18.5,14.7c0,9.1-7.9,15.3-19.8,15.3c-12.8,0-20.1-6.4-20.4-17.8h5.9c0,8.3,5.5,12.8,14.7,12.8
		c8.1,0,13.6-3.9,13.6-9.7c0-7-8.4-8.5-13.7-9.8c-8.1-1.9-19.2-3.2-19.2-14.1c0-8.7,7-14,18.3-14c10.9,0,18.8,5.2,18.8,15.9H428z"/>
	<path id="XMLID_12_" d="M451,48.5h-6.1v-10h6.1V48.5z M451,107.7h-6.1V58h6.1V107.7z"></path>
	<path id="XMLID_15_" d="M504.9,105c0,15.2-8,22.3-22.3,22.3c-12.1,0-19.6-5.4-20.2-15h6.1c1,6.9,5.8,10.3,14.4,10.3
		c12.3,0,16.3-6.7,16.3-18v-8.3c-3.3,7.2-9.1,10.9-17.2,10.9c-13.2,0-21.6-9.7-21.6-24.7c0-15.6,8.8-25.9,22.1-25.9
		c7.8,0,13.7,3.9,16.9,10.7V58h5.5V105z M466.5,82c0,12.2,6.3,19.9,16.1,19.9c10.2,0,16.6-7.9,16.6-20.6c0-11.8-6.4-19.5-16.4-19.5
		C472.7,61.8,466.5,69.6,466.5,82z"></path>
	<path id="XMLID_18_" d="M522.2,67.4c4-7.1,9-10.7,17.6-10.7c9.7,0,17.2,5,17.2,17.2v33.9H551v-32c0-10.3-5.1-13.8-12.7-13.8
		c-9.1,0-15.7,6-15.7,18.9v26.9h-6.1V58h5.7V67.4z"></path>
	<path id="XMLID_20_" d="M588.7,109.4c-13.8,0-22.9-10.2-22.9-26c0-15.8,9.4-26.8,22.8-26.8c14.7,0,21.9,12.2,21.9,26v1.7H572
		c0,10.5,4.8,20.1,16.8,20.1c7.9,0,13.3-4.5,15.2-13.1h5.9C607.8,102.4,600.4,109.4,588.7,109.4z M588.4,61.6
		c-10.8,0-15.2,8.4-16.4,17.7h32.3C603.7,68.3,597.7,61.6,588.4,61.6z"></path>
	<path id="XMLID_23_" d="M662.5,107.7H657V98c-3,7.6-9.8,11.2-17.9,11.2c-13.8,0-22.5-10.2-22.5-26.3c0-16,8.7-26.3,22.3-26.3
		c7.9,0,14.5,3.5,17.7,10.7V38.8h5.9V107.7z M622.7,82.8c0,13.2,6.6,21.5,16.9,21.5c10.7,0,17.1-8.1,17.1-21.4
		c0-10.7-5-21.3-17.2-21.3C629.3,61.6,622.7,69.9,622.7,82.8z"></path>
	<path id="XMLID_26_" d="M707.3,67.4c3-7.1,9.7-10.9,17.7-10.9c13.6,0,22.3,10.3,22.3,26.3c0,16.3-8.7,26.4-22.6,26.4
		c-8.4,0-14.9-3.8-17.8-11.1v9.7h-5.5V38.8h5.9V67.4z M707.1,82.9c0,13.1,6.7,21.4,17.1,21.4c10.3,0,16.8-8.4,16.8-21.4
		c0-13.1-6.6-21.3-16.9-21.3C713.7,61.6,707.1,69.8,707.1,82.9z"></path>
	<path id="XMLID_29_" d="M776,109.6c-4.4,11.6-6.7,17-14.7,17c-1.8,0-3.6-0.2-5.3-0.5v-5.3c2.3,0.6,3,0.7,4.4,0.7
		c5.9,0,7.6-5.9,10.7-14.1L751,58h6.7l13.5,34.3c1.7,4.6,1.1,2.9,3,8.8c1.5-5,2.1-7.2,3-9.5L789.4,58h6.2L776,109.6z"></path>

		</symbol>
		

	</defs>
</svg>